<svg xmlns="http://www.w3.org/2000/svg" xmlns:xlink="http://www.w3.org/1999/xlink" viewBox="0 0 500 500"><defs><clipPath id="freepik--clip-path--inject-3"><path d="M219,204.9s-2.42,59.93-1.9,69.94-1.56,70.81-1.56,70.81a8.55,8.55,0,0,0,6.05,2.24c4,0,5-1.55,5-1.55L247.84,235s3.28,43.52,7.25,61a310.24,310.24,0,0,0,8.77,31s.73,1.85,5.39.93c4.06-.8,5.53-5.53,5.53-5.53s-.86-44-.69-71.15-.69-52.5-.69-52.5-18.31,6-31.43,7.6A62.37,62.37,0,0,1,219,204.9Z" style="fill:#263238;stroke:#263238;stroke-linecap:round;stroke-linejoin:round"></path></clipPath><clipPath id="freepik--clip-path-2--inject-3"><path d="M233.37,112s4.36,2.7,6.44.42.89-2.8,1.72-4.46,2.47-.74,2.67,2.38-2.52,3.32.8,3.74,3.65,1.43,11.55-2.11,11.31-13.47,11.31-18.88-11.43-13.92-18.28-15S231.91,81.26,229,88.74s.42,17.87.63,19.12S229.84,111.39,233.37,112Z" style="fill:#263238"></path></clipPath></defs><g id="freepik--background-simple--inject-3"><path d="M390.29,47.49S340.42,6.76,275.56,24.82s-92,73.93-129.21,112.34c-19.48,20.12-48.26,27.54-71.4,43C1,229.69,11.91,341,69,383c49.4,36.35,111.13,40.15,191.45,13.34s137.81-42.92,187.63-119.71S451.72,102.76,390.29,47.49Z" style="fill:#D57FEA"></path><path d="M390.29,47.49S340.42,6.76,275.56,24.82s-92,73.93-129.21,112.34c-19.48,20.12-48.26,27.54-71.4,43C1,229.69,11.91,341,69,383c49.4,36.35,111.13,40.15,191.45,13.34s137.81-42.92,187.63-119.71S451.72,102.76,390.29,47.49Z" style="fill:#fff;opacity:0.7000000000000001"></path></g><g id="freepik--Labyrinth--inject-3"><path d="M248.09,210.37c-67.87,0-131.33,18.24-174.1,50l7.15,3.5c40.05-29.78,99-47.15,162.34-48v15.8C141.65,233.24,59.57,283.59,59.57,345.29c0,19.91,8.57,38.64,23.58,54.93l-22.67,8.27C43,389.64,33.34,368,33.34,345.29c0-21.84,9.2-43.43,26.6-62.42l-8.06-2.68C33.73,300,24.13,322.51,24.13,345.29c0,27.55,13.7,54,39.62,76.63,25.32,22.06,60.49,38.94,101.71,48.8l3.4-5.16C124.62,455,88.81,436.44,65.13,413.28L87.81,405c33.28,32.3,92.67,53.85,160.28,53.85,103.94,0,188.51-51,188.51-113.56,0-38.91-32.51-74.69-87-95.7l-5,4.67c51.8,20,82.73,54,82.73,91,0,39-34.5,73.25-86.09,92.24l-11.82-11.31c21.37-7.81,39.65-18.76,53.15-32.28l-7.89-2.86c-27,27-74.34,43.18-126.65,43.18-45.49,0-87.76-12.35-116-33.88l-7.23,3.44A158.73,158.73,0,0,0,166,425.89l-11.37,11.55c-51.46-19-85.86-53.2-85.86-92.15,0-59.56,80.44-108,179.31-108A280.82,280.82,0,0,1,322,246.85l3.8-5a293.38,293.38,0,0,0-73.14-10V216C369,217.44,462.83,274.88,462.83,345.29c0,71.33-96.33,129.36-214.74,129.36A356.32,356.32,0,0,1,204.91,472l-1.84,5.43a370.32,370.32,0,0,0,45,2.73c123.48,0,224-60.52,224-134.91S371.57,210.37,248.09,210.37ZM174,428.65c22.45,7.25,47.76,11.16,74.1,11.16S299.31,436,321.46,429l11.85,11.35c-25.36,8.29-54.39,13-85.22,13s-60.05-4.74-85.48-13.08Z" style="fill:#263238"></path><path d="M393.32,381.12c7.75-11.38,11.67-23.44,11.67-35.83,0-52.12-70.39-94.53-156.9-94.53-36.81,0-72.6,7.84-100.76,22.06l5.92,4.25c26.51-13.39,60.19-20.76,94.84-20.76a229,229,0,0,1,67,9.7L302.3,282.43a181.54,181.54,0,0,0-54.21-8,195.27,195.27,0,0,0-22.4,1.28l1.74,5.45A180.93,180.93,0,0,1,248.09,280C307,280,355,308.39,356.44,343.66H325.51c-.51-9-5.27-17.64-13.84-25.05l-7.55,3.18c8,6.91,12.23,15,12.23,23.5,0,21.28-27.55,39.29-62.72,41l.73,5.53a118,118,0,0,0,28-4.71l16.07,16a167.53,167.53,0,0,1-50.38,7.5c-37.74,0-71-11.68-90.45-29.35l27.06-9.1c8.17,7,19.54,12.65,33.23,16.14l3.59-5.11q-3.45-.89-6.67-2l13.76-12.9a66.6,66.6,0,0,0,19.48,2.82,70.36,70.36,0,0,0,10.11-.72L256,365a54.9,54.9,0,0,1-8,.57c-18.6,0-33.72-9.11-33.72-20.31S229.49,325,248.09,325s33.71,9.12,33.71,20.32c0,4.81-2.85,9.49-8,13.15l7,3.59c6.59-4.66,10.22-10.61,10.22-16.74,0-14.26-19.25-25.86-42.92-25.86a66.61,66.61,0,0,0-19.71,2.89L214.44,309.5a105.18,105.18,0,0,1,33.65-5.34c14.53,0,28.4,2.71,40.11,7.85l5.42-4.49c-13.29-5.83-29-8.91-45.53-8.91-26.27,0-50.54,7.93-64.92,21.19l7.71,3a60.94,60.94,0,0,1,15.88-10.27l13.94,12.83c-9.48,4.75-15.54,11.9-15.54,19.9s6.14,15.25,15.75,20L207.13,378.2c-17-7.65-27.31-19.75-27.31-32.91a26,26,0,0,1,2.06-10.08L173,333.86a29.55,29.55,0,0,0-2.34,11.43c0,7.9,3.3,15.47,9.25,22.13l-27,9.08c-8.42-9.28-13.21-19.91-13.21-31.21,0-25,24.15-48.1,61.54-58.92l-4-5c-39.17,11.34-64.94,35.13-66.66,61.14H100.48c.93-18.52,11.15-36.05,29.74-50.85l-7.34-3.35c-20.74,16.51-31.7,36.21-31.7,57,0,14.73,5.47,28.84,16.26,41.94l8.25-2.46c-9.47-11.51-14.59-23.84-15.23-36.71h30.11c2.43,37.79,54.2,68.09,117.52,68.09,64.86,0,117.63-31.79,117.63-70.86,0-25.32-22.16-47.56-55.4-60.1L323.2,268.7c43.41,15.52,72.58,44,72.58,76.59,0,11.67-3.69,23-11,33.72Zm-86.9,19.18-16.05-16c19.47-7.72,32.84-20.56,34.9-35.11h31C354.18,370.66,334.8,389.34,306.42,400.3Z" style="fill:#263238"></path></g><g id="freepik--Character--inject-3"><path d="M278.4,324.17c-.09-.29-.38-1.19-6-.75l-11.27.85c-1.3-1-16.5-12.44-16.55-12.33-.56-.5-8.92-7.71-11.51-9.78a4.15,4.15,0,0,0,2.46-.88c.35-.41,1.83-2.3,2.09-2.64,5.23-3.31,15.16-9.58,15.78-9.91,1.72-.92,1.93-1.77,1.8-2.32-.19-.85-1.27-1.35-3-1.41-1.06,0-4.87-.74-9.28-1.54-7.67-1.4-18.18-3.31-23.15-3.44a74,74,0,0,0-15.48,1.49c-2.23.3-5.13.76-8.42,1.38a14.54,14.54,0,0,0-2.47-4.23c1.36-1.47,1.27-2.78.44-3.5-.6-.52-7.57-1.36-7.92-.71-2.49,0-5.28.19-7.93.42.33-.26-.76-.64-1.93.18-1.69.18-3.27.39-4.62.63-7.17,1.26-16.93,4.6-17.85,7-.32.84.22,1.59,1.09,2.22-1.1.33-.25,1.11,1.13.69a9.9,9.9,0,0,0,.93.44c-.51.11.68.88,1.66.65h0a.83.83,0,0,0-.38.74c.07,1.48,4.64,2.06,4.68,2.06a7.5,7.5,0,0,0,.94.05,12.3,12.3,0,0,0,3.4-.53c.61.2,1.24.39,1.88.58a9.53,9.53,0,0,0-1.24,1.08c-2.46,1-5.69,2.38-8.62,3.72l-.14,0a113.75,113.75,0,0,0-13.12,6.26,1.7,1.7,0,0,0-1,1.67c.24,2.42,6.77,5.9,19.39,10.35l.2.07a19.93,19.93,0,0,0,6.7,1.2,19.32,19.32,0,0,0,4.25-.49c3.29,3.48,12.87,18,15.59,19.88,1.56,1.09,8.34,15.26,12.27,19.17-.44.36.24,1.1.71.71.94,1,2.94,3.72,3.41,3.44l.6.61c-.33.16.31,1,.74.75l2,2c-.6,1.2-1.47,3.37-.54,4.39a4.65,4.65,0,0,0,3.61,1.38,12.59,12.59,0,0,0,4.65-1.07c3.5-1.44,5.1-3.41,4.76-5.89a3.32,3.32,0,0,0-.3-1,.49.49,0,0,0,.1-.42l-3.69-13.35c.39-.91-6.55-29.86-6.55-29.86A.52.52,0,0,0,213,314c3.87,2.38,14.31,8.62,21.33,11.41-.3.33-.61.66-.94,1a.5.5,0,0,0,0,.71.48.48,0,0,0,.7,0c.43-.42.84-.86,1.24-1.31a29,29,0,0,0,9.31,1.1c3.83,1.14,6.48,1.81,6.54,1.82a3.26,3.26,0,0,0,.75,0,10.08,10.08,0,0,0,1.86.15,32.16,32.16,0,0,0,5.2-.57l.46-.07a22.12,22.12,0,0,1,3.2-.19,44,44,0,0,0,5.49-.33c4.14-.53,8.45-1.78,9.73-2.57C278.49,324.81,278.47,324.39,278.4,324.17Zm-42.13-34.38-5,7.88-2.35,1.23-.23-.18a1.09,1.09,0,0,0,0-.25c-.3-.8-5.46-6.77-9.18-10.72l.53,0Z" style="opacity:0.30000000000000004"></path><path d="M277,199.72l-6.21,5.18s-1.21,1.9-.35,2.94a16.89,16.89,0,0,1,1.73,2.76s1,2.07,2.07,2.42,2.25.52,2.94-.69,4.14-7.6,4.14-7.6Z" style="fill:#fff;stroke:#263238;stroke-linecap:round;stroke-linejoin:round"></path><path d="M216.07,344.92s-4.73,10.27-4.94,14.79.83,9.25,6,6.37,7.35-10.25,8.43-15a25.69,25.69,0,0,0,.82-7.39Z" style="fill:#fff;stroke:#263238;stroke-linecap:round;stroke-linejoin:round"></path><path d="M273.39,321.5s7.6,4.31,11.3,6.37,4.93,5.13,3.29,6.78-6.16,2.67-9.86,1.43-5.34-4.31-7.4-4.72-6.37-.82-7-6.37S273.39,321.5,273.39,321.5Z" style="fill:#fff;stroke:#263238;stroke-linecap:round;stroke-linejoin:round"></path><path d="M219,204.9s-2.42,59.93-1.9,69.94-1.56,70.81-1.56,70.81a8.55,8.55,0,0,0,6.05,2.24c4,0,5-1.55,5-1.55L247.84,235s3.28,43.52,7.25,61a310.24,310.24,0,0,0,8.77,31s.73,1.85,5.39.93c4.06-.8,5.53-5.53,5.53-5.53s-.86-44-.69-71.15-.69-52.5-.69-52.5-18.31,6-31.43,7.6A62.37,62.37,0,0,1,219,204.9Z" style="fill:#263238"></path><g style="clip-path:url(#freepik--clip-path--inject-3)"><path d="M244.12,263.76a229.11,229.11,0,0,1-19,38.66A178.79,178.79,0,0,1,213.77,319" style="fill:none;stroke:#8a8a8a;stroke-linecap:round;stroke-linejoin:round"></path><path d="M230.5,309a117.37,117.37,0,0,1-7.39,12.27,58,58,0,0,1-9.37,10.83" style="fill:none;stroke:#8a8a8a;stroke-linecap:round;stroke-linejoin:round"></path><path d="M239.29,288.34a150.21,150.21,0,0,1-6.44,16" style="fill:none;stroke:#8a8a8a;stroke-linecap:round;stroke-linejoin:round"></path><path d="M275.28,247.52s-11,33.8-22.82,52.23" style="fill:none;stroke:#8a8a8a;stroke-linecap:round;stroke-linejoin:round"></path><path d="M274.84,258.05c-3.14,20.18-6.68,40.54-15.53,59" style="fill:none;stroke:#8a8a8a;stroke-linecap:round;stroke-linejoin:round"></path><polyline points="247.63 239.18 249.83 233.91 255.97 230.4" style="fill:none;stroke:#8a8a8a;stroke-linecap:round;stroke-linejoin:round"></polyline><path d="M272.05,196.56s-7.2,6.93-25.2,8.86-26.3,0-26.3,0-2.27,1.09-.86,2.76c0,0-1.08,1.67,4.73,3.06a55.32,55.32,0,0,0,8.77,1.32l-.18-3,3.32-.56v3.68a67,67,0,0,0,9.14-.45V209l2.49-.27-.2,3.2,1-.16a75.39,75.39,0,0,0,13.57-3.48v-4.82l3.6-.28-.33,3.79a21.55,21.55,0,0,0,6.14-3.79A4.71,4.71,0,0,0,272.05,196.56Z" style="fill:#969696"></path><path d="M227.88,325.21a168.76,168.76,0,0,1-14,12" style="fill:none;stroke:#8a8a8a;stroke-linecap:round;stroke-linejoin:round"></path></g><path d="M219,204.9s-2.42,59.93-1.9,69.94-1.56,70.81-1.56,70.81a8.55,8.55,0,0,0,6.05,2.24c4,0,5-1.55,5-1.55L247.84,235s3.28,43.52,7.25,61a310.24,310.24,0,0,0,8.77,31s.73,1.85,5.39.93c4.06-.8,5.53-5.53,5.53-5.53s-.86-44-.69-71.15-.69-52.5-.69-52.5-18.31,6-31.43,7.6A62.37,62.37,0,0,1,219,204.9Z" style="fill:none;stroke:#263238;stroke-linecap:round;stroke-linejoin:round"></path><path d="M269.77,124.42a19.78,19.78,0,0,1,13.82,6.39c6,6.57,19,38.69,21.24,41.28s1.41,7.64-1.75,10.3c-1,.87-21.74,22.34-21.74,22.34l-4.32-5,12.27-25.56L274.61,149" style="fill:#D57FEA;stroke:#263238;stroke-linecap:round;stroke-linejoin:round"></path><polygon points="276.36 146.74 276.91 142.28 278.58 155.27 276.54 152.86 276.36 146.74" style="fill:#263238;stroke:#263238;stroke-linecap:round;stroke-linejoin:round"></polygon><path d="M296.29,178c-4.36.24-7-3.87-7-3.87a8,8,0,0,0,7.49,5.57" style="fill:none;stroke:#263238;stroke-linecap:round;stroke-linejoin:round"></path><path d="M276.43,147.91c-.38,15.39-2.22,48.51-2.69,51.29-.52,3.11-4.14,5-18.48,9.33s-34.19,2.76-35.57-.35-4.15-18.3-4.15-25.56-6.9-35.4-.86-41.79,22.62-15,22.62-15c13.3-5.19,27.81-3.29,33.68-1a9.24,9.24,0,0,1,2.54,1.4" style="fill:#D57FEA;stroke:#263238;stroke-linecap:round;stroke-linejoin:round"></path><polygon points="242.66 143.07 248.36 147.91 244.38 197.3 253.88 207.15 260.27 192.81 251.64 147.22 255.78 140.48 249.22 134.27 242.66 143.07" style="fill:#fff;stroke:#263238;stroke-linecap:round;stroke-linejoin:round"></polygon><polygon points="258.54 183.65 244.66 193.9 244.38 197.3 247.54 200.57 260 191.37 258.54 183.65" style="fill:#263238"></polygon><polygon points="253.3 156 251.84 148.28 248.1 151.03 247.35 160.39 253.3 156" style="fill:#263238"></polygon><polygon points="255.19 165.96 246.38 172.47 245.63 181.83 256.65 173.69 255.19 165.96" style="fill:#263238"></polygon><path d="M237.3,122.52s-5,5.36-5,7.08,4.66,14.86,5.87,16.07,10.7-6.39,10.7-6.39,10,5.87,10.71,5-.86-10.36-2.76-15.19S244.73,117.69,237.3,122.52Z" style="fill:#D57FEA;stroke:#263238;stroke-linecap:round;stroke-linejoin:round"></path><path d="M239.55,129.6s5.18,13.3,10.36,14,6.22-10.7,5.87-14S244,121.66,239.55,129.6Z" style="fill:#263238;stroke:#263238;stroke-linecap:round;stroke-linejoin:round"></path><path d="M263.91,102.66s-.83,14.55-2.49,20.78-3.74,12.88-7.27,13.72-11-2.71-14.55-6-7.27-19.74-7.27-24.52,13.09-8.94,20.36-9.14A14.06,14.06,0,0,1,263.91,102.66Z" style="fill:#fff;stroke:#263238;stroke-linecap:round;stroke-linejoin:round"></path><polyline points="255.66 117.23 255.66 125.34 252.44 125.82" style="fill:none;stroke:#263238;stroke-linecap:round;stroke-linejoin:round"></polyline><path d="M244.09,117.23s1.91,2.15,7.4.6" style="fill:none;stroke:#263238;stroke-linecap:round;stroke-linejoin:round"></path><path d="M256.38,117.11s2.26.72,4.65-1.55" style="fill:none;stroke:#263238;stroke-linecap:round;stroke-linejoin:round"></path><path d="M255.9,116.1s1-2.65,5.32-3.49" style="fill:none;stroke:#263238;stroke-linecap:round;stroke-linejoin:round"></path><path d="M252.12,116.66a8.55,8.55,0,0,0-8-2.1" style="fill:none;stroke:#263238;stroke-linecap:round;stroke-linejoin:round"></path><line x1="252.26" y1="129.67" x2="255.48" y2="129.11" style="fill:none;stroke:#263238;stroke-linecap:round;stroke-linejoin:round"></line><path d="M246,118.76a3.81,3.81,0,0,0,3.5,0" style="fill:none;stroke:#263238;stroke-linecap:round;stroke-linejoin:round"></path><path d="M256.88,117.79a3.78,3.78,0,0,0,3.39-.85" style="fill:none;stroke:#263238;stroke-linecap:round;stroke-linejoin:round"></path><path d="M233.37,112s4.36,2.7,6.44.42.89-2.8,1.72-4.46,2.47-.74,2.67,2.38-2.52,3.32.8,3.74,3.65,1.43,11.55-2.11,11.31-13.47,11.31-18.88-11.43-13.92-18.28-15S231.91,81.26,229,88.74s.42,17.87.63,19.12S229.84,111.39,233.37,112Z" style="fill:#263238"></path><g style="clip-path:url(#freepik--clip-path-2--inject-3)"><path d="M258.67,92c-4.92,6.14-14.32,12.58-32.12,12.36" style="fill:none;stroke:#8a8a8a;stroke-linecap:round;stroke-linejoin:round"></path><path d="M263.87,81.17A23.31,23.31,0,0,1,261,88.6" style="fill:none;stroke:#8a8a8a;stroke-linecap:round;stroke-linejoin:round"></path><path d="M256.41,77.66S242.8,97,223.93,99.6" style="fill:none;stroke:#8a8a8a;stroke-linecap:round;stroke-linejoin:round"></path></g><path d="M236.43,114.29s-2.27-7.23-5.91-7.31-1.57,7.58,0,10.2a3.22,3.22,0,0,0,4.22,1.3" style="fill:#fff;stroke:#263238;stroke-linecap:round;stroke-linejoin:round"></path><path d="M231,113.73s-.84-3.5.84-2.8,2.52,3.21,2.52,3.21-1.4-.14-1.26.7,1.12.84,1.12.84" style="fill:none;stroke:#263238;stroke-linecap:round;stroke-linejoin:round"></path><path d="M222.28,134.61a82.71,82.71,0,0,0-16.06,11.57c-6.74,6.57,3.28,47.15,4.49,52.16,1.75,7.23,4.32,10.53,7.94,10.36s15.89-21.41,19.69-30.57a127.15,127.15,0,0,0,6-20.38s4.84-1.9,5.7-3.62a21.87,21.87,0,0,0,1.38-3.63s.87,2.59,2.42,1.9,2.25-4.66,2.59-7.43-6.73-5.18-6.73-5.18.86-3.62,2.93-4.14,4.49-2.42,3.8-3.46-6.56,2.6-6.56,2.6-4.66,7.25-6.39,10.53c-1.13,2.15-3.88,8.13-5.65,12a40.28,40.28,0,0,1-3.89,6.74l-8.42,11.82s-.34-21.24-.34-22.11" style="fill:#D57FEA;stroke:#263238;stroke-linecap:round;stroke-linejoin:round"></path><line x1="225.5" y1="160.28" x2="228.47" y2="152.86" style="fill:none;stroke:#263238;stroke-linecap:round;stroke-linejoin:round"></line><path d="M214.55,189.24c0-2,11-13.35,11-13.35s-12.12,7.78-13.42,10" style="fill:none;stroke:#263238;stroke-linecap:round;stroke-linejoin:round"></path><path d="M250.08,154.13a21.87,21.87,0,0,0,1.38-3.63s.87,2.59,2.42,1.9,2.25-4.66,2.59-7.43-6.21-5.35-6.21-5.35,1-3.11,2.41-4c1.82-1.13,4.49-2.42,3.8-3.46-.39-.59-2.47,0-4.18.62a6.5,6.5,0,0,0-3.52,3c-1.5,2.67-4.06,7.28-5.25,9.53-1,2-3.44,7.17-5.2,11,.76,1.32,2.36,2.9,5.69,3.18.24-1.11.37-1.76.37-1.76S249.22,155.85,250.08,154.13Z" style="fill:#fff;stroke:#263238;stroke-linecap:round;stroke-linejoin:round"></path><path d="M249.91,145.84a53.58,53.58,0,0,1,5.18,2.42,1.13,1.13,0,0,1,.52,1.55" style="fill:#fff;stroke:#263238;stroke-linecap:round;stroke-linejoin:round"></path><path d="M249.57,142.56s5.87,2.76,6.73,3.62" style="fill:#fff;stroke:#263238;stroke-linecap:round;stroke-linejoin:round"></path></g></svg>