<svg width="482" height="120" viewBox="0 0 482 120" fill="none" xmlns="http://www.w3.org/2000/svg">
<rect width="120" height="120" fill="black"/>
<path fill-rule="evenodd" clip-rule="evenodd" d="M21.435 109.567L8.53739 93.4993C5.43424 89.6335 3.75 84.8798 3.75 79.987V21.8062C3.75 14.4774 9.61345 8.39614 17.1777 7.87969L76.9955 3.79569C81.3412 3.49898 85.6605 4.65409 89.2303 7.06764L110.247 21.2772C114.009 23.8207 116.25 27.9787 116.25 32.416V98.5619C116.25 105.734 110.485 111.672 103.079 112.128L36.6875 116.215C30.7775 116.579 25.065 114.089 21.435 109.567Z" fill="white"/>
<path d="M42.1813 50.9201V50.1584C42.1813 48.2276 43.7277 46.6262 45.7208 46.4932L60.2383 45.5239L80.3149 75.0882V49.1405L75.1473 48.4517V48.0899C75.1473 46.1363 76.729 44.5244 78.7475 44.421L91.9569 43.7444V45.6453C91.9569 46.5377 91.2933 47.301 90.3838 47.4548L87.2051 47.9924V90.0138L83.2157 91.3858C79.8828 92.5319 76.1724 91.3051 74.2645 88.426L54.7737 59.0144V87.0861L60.7729 88.2342L60.6893 88.7907C60.4275 90.5337 58.9227 91.852 57.1022 91.933L42.1813 92.5971C41.9841 90.7228 43.3889 89.0459 45.3269 88.8423L47.2895 88.6361V51.2072L42.1813 50.9201Z" fill="black"/>
<path fill-rule="evenodd" clip-rule="evenodd" d="M77.5318 11.1254L17.714 15.2094C14.1309 15.4541 11.3535 18.3347 11.3535 21.8062V79.987C11.3535 83.2489 12.4763 86.418 14.5451 88.9952L27.4427 105.063C29.528 107.66 32.8097 109.091 36.2048 108.882L102.596 104.795C105.999 104.586 108.648 101.857 108.648 98.5619V32.416C108.648 30.3772 107.618 28.4668 105.89 27.2981L84.8727 13.0886C82.7308 11.6405 80.1392 10.9474 77.5318 11.1254ZM20.6802 22.7137C19.8483 22.0978 20.2442 20.8146 21.2894 20.7396L77.9342 16.6767C79.739 16.5472 81.5324 17.0442 82.9919 18.0783L94.3573 26.1305C94.7888 26.4362 94.5864 27.0961 94.0522 27.1252L34.0655 30.3876C32.2501 30.4863 30.4582 29.953 29.0148 28.8844L20.6802 22.7137ZM31.2519 40.6152C31.2519 38.6664 32.8263 37.0566 34.8395 36.947L98.2624 33.4929C100.224 33.3861 101.876 34.895 101.876 36.7943V94.0697C101.876 96.015 100.307 97.6231 98.2982 97.7374L35.2768 101.323C33.0932 101.447 31.2519 99.7696 31.2519 97.6556V40.6152Z" fill="black"/>
<path d="M168.567 48.9582V82.1681H163.216L147.567 59.5471H147.292V82.1681H141.276V48.9582H146.659L162.291 71.5954H162.583V48.9582H168.567ZM185.727 82.6546C183.295 82.6546 181.187 82.1195 179.403 81.0492C177.619 79.979 176.236 78.4817 175.252 76.5575C174.279 74.6332 173.792 72.3846 173.792 69.8117C173.792 67.2388 174.279 64.9848 175.252 63.0497C176.236 61.1146 177.619 59.6119 179.403 58.5417C181.187 57.4715 183.295 56.9363 185.727 56.9363C188.16 56.9363 190.268 57.4715 192.051 58.5417C193.835 59.6119 195.213 61.1146 196.186 63.0497C197.17 64.9848 197.662 67.2388 197.662 69.8117C197.662 72.3846 197.17 74.6332 196.186 76.5575C195.213 78.4817 193.835 79.979 192.051 81.0492C190.268 82.1195 188.16 82.6546 185.727 82.6546ZM185.76 77.952C187.078 77.952 188.181 77.5899 189.068 76.8656C189.954 76.1305 190.614 75.1467 191.046 73.9143C191.489 72.6819 191.711 71.3089 191.711 69.7955C191.711 68.2712 191.489 66.8928 191.046 65.6604C190.614 64.4172 189.954 63.4281 189.068 62.6929C188.181 61.9578 187.078 61.5903 185.76 61.5903C184.408 61.5903 183.284 61.9578 182.387 62.6929C181.5 63.4281 180.835 64.4172 180.392 65.6604C179.96 66.8928 179.744 68.2712 179.744 69.7955C179.744 71.3089 179.96 72.6819 180.392 73.9143C180.835 75.1467 181.5 76.1305 182.387 76.8656C183.284 77.5899 184.408 77.952 185.76 77.952ZM215.082 57.2607V61.8011H200.763V57.2607H215.082ZM204.298 51.2932H210.168V74.6764C210.168 75.4656 210.287 76.071 210.525 76.4926C210.774 76.9034 211.098 77.1845 211.498 77.3358C211.898 77.4872 212.341 77.5628 212.828 77.5628C213.195 77.5628 213.531 77.5358 213.833 77.4818C214.147 77.4277 214.385 77.3791 214.547 77.3358L215.536 81.9249C215.222 82.033 214.774 82.1519 214.19 82.2816C213.617 82.4114 212.914 82.487 212.082 82.5087C210.612 82.5519 209.287 82.3303 208.109 81.8438C206.931 81.3465 205.996 80.579 205.304 79.5412C204.623 78.5034 204.288 77.2061 204.298 75.6494V51.2932ZM219.991 82.1681V57.2607H225.861V82.1681H219.991ZM222.942 53.7256C222.013 53.7256 221.213 53.4175 220.543 52.8013C219.872 52.1743 219.537 51.423 219.537 50.5473C219.537 49.6608 219.872 48.9095 220.543 48.2933C221.213 47.6663 222.013 47.3528 222.942 47.3528C223.883 47.3528 224.683 47.6663 225.342 48.2933C226.013 48.9095 226.348 49.6608 226.348 50.5473C226.348 51.423 226.013 52.1743 225.342 52.8013C224.683 53.4175 223.883 53.7256 222.942 53.7256ZM242.762 82.6546C240.33 82.6546 238.222 82.1195 236.438 81.0492C234.654 79.979 233.271 78.4817 232.287 76.5575C231.314 74.6332 230.827 72.3846 230.827 69.8117C230.827 67.2388 231.314 64.9848 232.287 63.0497C233.271 61.1146 234.654 59.6119 236.438 58.5417C238.222 57.4715 240.33 56.9363 242.762 56.9363C245.195 56.9363 247.303 57.4715 249.086 58.5417C250.87 59.6119 252.248 61.1146 253.221 63.0497C254.205 64.9848 254.697 67.2388 254.697 69.8117C254.697 72.3846 254.205 74.6332 253.221 76.5575C252.248 78.4817 250.87 79.979 249.086 81.0492C247.303 82.1195 245.195 82.6546 242.762 82.6546ZM242.795 77.952C244.114 77.952 245.216 77.5899 246.103 76.8656C246.989 76.1305 247.649 75.1467 248.081 73.9143C248.524 72.6819 248.746 71.3089 248.746 69.7955C248.746 68.2712 248.524 66.8928 248.081 65.6604C247.649 64.4172 246.989 63.4281 246.103 62.6929C245.216 61.9578 244.114 61.5903 242.795 61.5903C241.443 61.5903 240.319 61.9578 239.422 62.6929C238.535 63.4281 237.87 64.4172 237.427 65.6604C236.995 66.8928 236.779 68.2712 236.779 69.7955C236.779 71.3089 236.995 72.6819 237.427 73.9143C237.87 75.1467 238.535 76.1305 239.422 76.8656C240.319 77.5899 241.443 77.952 242.795 77.952ZM265.55 67.5739V82.1681H259.679V57.2607H265.29V61.493H265.582C266.155 60.0984 267.068 58.9903 268.322 58.1687C269.587 57.3471 271.149 56.9363 273.009 56.9363C274.728 56.9363 276.225 57.3039 277.501 58.039C278.787 58.7741 279.782 59.839 280.484 61.2335C281.198 62.6281 281.549 64.3199 281.538 66.3091V82.1681H275.668V67.2172C275.668 65.5523 275.236 64.2497 274.371 63.3091C273.517 62.3686 272.333 61.8984 270.82 61.8984C269.793 61.8984 268.879 62.1254 268.079 62.5794C267.29 63.0227 266.668 63.6659 266.214 64.5091C265.771 65.3523 265.55 66.3739 265.55 67.5739Z" fill="white"/>
</svg>
